<?xml version="1.0" encoding="utf-8"?>

<!-- Uploaded to: SVG Repo, www.svgrepo.com, Generator: SVG Repo Mixer Tools -->
<svg version="1.1" id="Uploaded to svgrepo.com" xmlns="http://www.w3.org/2000/svg" xmlns:xlink="http://www.w3.org/1999/xlink" 
	 width="800px" height="800px" viewBox="0 0 32 32" xml:space="preserve">
<g>
	<g>
		<path d="M28.071,13.454L17.011,2.468c-0.572-0.569-1.519-0.552-2.114,0.038L3.2,14.176
			c-0.195,0.194-0.195,0.511,0,0.707c0.195,0.195,0.512,0.195,0.707,0L15.603,3.214c0.205-0.203,0.521-0.22,0.703-0.037
			l11.062,10.987c0.218,0.216,0.141,0.461,0.112,0.531C27.45,14.767,27.329,15,27.015,15H7.5C6.673,15,6,15.673,6,16.5v12.028
			C6,29.34,6.729,30,7.625,30l4.868-0.007c0.004,0,0.008,0,0.011,0c0.397,0,0.771-0.153,1.053-0.434
			C13.843,29.275,14,28.897,14,28.493L13.997,24c0-1.103,0.898-2,2.002-2S18,22.897,18,24v4.5c0,0.827,0.673,1.5,1.5,1.5h4.982
			C25.319,30,26,29.363,26,28.58V18.5c0-0.276-0.224-0.5-0.5-0.5S25,18.224,25,18.5v10.08c0,0.231-0.232,0.42-0.518,0.42H19.5
			c-0.275,0-0.5-0.225-0.5-0.5V24c0-1.654-1.347-3-3.001-3c-1.655,0-3.002,1.346-3.002,3.001L13,28.493
			c0,0.136-0.053,0.262-0.147,0.356c-0.094,0.093-0.217,0.144-0.353,0.144c-0.001,0-0.002,0-0.004,0L7.624,29
			C7.286,29,7,28.784,7,28.528V16.5C7,16.225,7.225,16,7.5,16h19.515c0.622,0,1.155-0.354,1.39-0.924
			C28.637,14.51,28.51,13.888,28.071,13.454z" fill="currentColor"/>
	</g>
	<g>
		<path d="M28.071,13.454L17.011,2.468c-0.572-0.569-1.519-0.552-2.114,0.038L3.2,14.176
			c-0.195,0.194-0.195,0.511,0,0.707c0.195,0.195,0.512,0.195,0.707,0L15.603,3.214c0.205-0.203,0.521-0.22,0.703-0.037
			l11.062,10.987c0.218,0.216,0.141,0.461,0.112,0.531C27.45,14.767,27.329,15,27.015,15H7.5C6.673,15,6,15.673,6,16.5v12.028
			C6,29.34,6.729,30,7.625,30l4.868-0.007c0.004,0,0.008,0,0.011,0c0.397,0,0.771-0.153,1.053-0.434
			C13.843,29.275,14,28.897,14,28.493L13.997,24c0-1.103,0.898-2,2.002-2S18,22.897,18,24v4.5c0,0.827,0.673,1.5,1.5,1.5h4.982
			C25.319,30,26,29.363,26,28.58V18.5c0-0.276-0.224-0.5-0.5-0.5S25,18.224,25,18.5v10.08c0,0.231-0.232,0.42-0.518,0.42H19.5
			c-0.275,0-0.5-0.225-0.5-0.5V24c0-1.654-1.347-3-3.001-3c-1.655,0-3.002,1.346-3.002,3.001L13,28.493
			c0,0.136-0.053,0.262-0.147,0.356c-0.094,0.093-0.217,0.144-0.353,0.144c-0.001,0-0.002,0-0.004,0L7.624,29
			C7.286,29,7,28.784,7,28.528V16.5C7,16.225,7.225,16,7.5,16h19.515c0.622,0,1.155-0.354,1.39-0.924
			C28.637,14.51,28.51,13.888,28.071,13.454z" fill="currentColor"/>
	</g>
</g>
</svg>